<svg width="33" height="33" viewBox="0 0 33 33" fill="none" xmlns="http://www.w3.org/2000/svg">
<path d="M13.75 13.75C16.7876 13.75 19.25 11.2876 19.25 8.25C19.25 5.21243 16.7876 2.75 13.75 2.75C10.7124 2.75 8.25 5.21243 8.25 8.25C8.25 11.2876 10.7124 13.75 13.75 13.75Z" stroke="#7F2828" stroke-width="2"/>
<path d="M26.125 2.75C26.125 2.75 28.875 4.4 28.875 8.25C28.875 12.1 26.125 13.75 26.125 13.75" stroke="#7F2828" stroke-width="2" stroke-linecap="round"/>
<path d="M23.375 5.5C23.375 5.5 24.75 6.325 24.75 8.25C24.75 10.175 23.375 11 23.375 11" stroke="#7F2828" stroke-width="2" stroke-linecap="round"/>
<path d="M24.7466 24.75C24.75 24.5242 24.75 24.2949 24.75 24.0625C24.75 20.6452 19.8252 17.875 13.75 17.875C7.67486 17.875 2.75 20.6452 2.75 24.0625C2.75 27.4798 2.75 30.25 13.75 30.25C16.8176 30.25 19.0297 30.0345 20.625 29.6497" stroke="#7F2828" stroke-width="2" stroke-linecap="round"/>
</svg>
