<svg width="33" height="33" viewBox="0 0 33 33" fill="none" xmlns="http://www.w3.org/2000/svg">
<mask id="path-1-inside-1_6686_369" fill="white">
<path fill-rule="evenodd" clip-rule="evenodd" d="M14.7122 6.95613e-07H18.2878C21.3979 -3.00021e-05 23.8612 -4.54458e-05 25.7891 0.235053C27.7731 0.476981 29.3791 0.986747 30.6457 2.13539C31.912 3.28405 32.474 4.74058 32.7409 6.54011C33 8.28866 33 10.5229 33 13.3436V19.6563C33 22.4771 33 24.7113 32.7409 26.4599C32.474 28.2594 31.912 29.716 30.6457 30.8647C29.3791 32.0132 27.7731 32.523 25.7891 32.765C23.8612 33 21.3979 33 18.2878 33H14.7122C11.6022 33 9.13878 33 7.21089 32.765C5.22679 32.523 3.62088 32.0132 2.35441 30.8647C1.08795 29.716 0.525902 28.2594 0.259161 26.4599C-4.99051e-05 24.7113 -3.30793e-05 22.4771 7.6688e-07 19.6563V13.3436C-3.30793e-05 10.5229 -4.99051e-05 8.28866 0.259161 6.54011C0.525902 4.74058 1.08795 3.28405 2.35441 2.13539C3.62088 0.986747 5.22679 0.476981 7.21089 0.235053C9.13878 -4.54458e-05 11.6022 -3.00021e-05 14.7122 6.95613e-07ZM7.54913 2.51684C5.84652 2.72445 4.86557 3.1138 4.14937 3.76338C3.43317 4.41296 3.00388 5.30266 2.77498 6.84689C2.54115 8.42422 2.53846 10.5035 2.53846 13.4302V19.5698C2.53846 22.4965 2.54115 24.5758 2.77498 26.1532C3.00388 27.6973 3.43317 28.5871 4.14937 29.2366C4.86557 29.8862 5.84652 30.2756 7.54913 30.4831C9.28825 30.6952 11.5808 30.6977 14.8077 30.6977H18.1923C21.4192 30.6977 23.7118 30.6952 25.451 30.4831C27.1534 30.2756 28.1344 29.8862 28.8506 29.2366C29.5668 28.5871 29.9962 27.6973 30.225 26.1532C30.4588 24.5758 30.4615 22.4965 30.4615 19.5698V13.4302C30.4615 10.5035 30.4588 8.42422 30.225 6.84689C29.9962 5.30266 29.5668 4.41296 28.8506 3.76338C28.1344 3.1138 27.1534 2.72445 25.451 2.51684C23.7118 2.30477 21.4192 2.30233 18.1923 2.30233H14.8077C11.5808 2.30233 9.28825 2.30477 7.54913 2.51684ZM8.46154 10.3605C8.46154 9.7247 9.0298 9.2093 9.73077 9.2093H23.2692C23.9702 9.2093 24.5385 9.7247 24.5385 10.3605C24.5385 10.9962 23.9702 11.5116 23.2692 11.5116H9.73077C9.0298 11.5116 8.46154 10.9962 8.46154 10.3605ZM8.46154 16.5C8.46154 15.8643 9.0298 15.3488 9.73077 15.3488H23.2692C23.9702 15.3488 24.5385 15.8643 24.5385 16.5C24.5385 17.1357 23.9702 17.6512 23.2692 17.6512H9.73077C9.0298 17.6512 8.46154 17.1357 8.46154 16.5ZM8.46154 22.6395C8.46154 22.0038 9.0298 21.4884 9.73077 21.4884H18.1923C18.8933 21.4884 19.4615 22.0038 19.4615 22.6395C19.4615 23.2753 18.8933 23.7907 18.1923 23.7907H9.73077C9.0298 23.7907 8.46154 23.2753 8.46154 22.6395Z"/>
</mask>
<path fill-rule="evenodd" clip-rule="evenodd" d="M14.7122 6.95613e-07H18.2878C21.3979 -3.00021e-05 23.8612 -4.54458e-05 25.7891 0.235053C27.7731 0.476981 29.3791 0.986747 30.6457 2.13539C31.912 3.28405 32.474 4.74058 32.7409 6.54011C33 8.28866 33 10.5229 33 13.3436V19.6563C33 22.4771 33 24.7113 32.7409 26.4599C32.474 28.2594 31.912 29.716 30.6457 30.8647C29.3791 32.0132 27.7731 32.523 25.7891 32.765C23.8612 33 21.3979 33 18.2878 33H14.7122C11.6022 33 9.13878 33 7.21089 32.765C5.22679 32.523 3.62088 32.0132 2.35441 30.8647C1.08795 29.716 0.525902 28.2594 0.259161 26.4599C-4.99051e-05 24.7113 -3.30793e-05 22.4771 7.6688e-07 19.6563V13.3436C-3.30793e-05 10.5229 -4.99051e-05 8.28866 0.259161 6.54011C0.525902 4.74058 1.08795 3.28405 2.35441 2.13539C3.62088 0.986747 5.22679 0.476981 7.21089 0.235053C9.13878 -4.54458e-05 11.6022 -3.00021e-05 14.7122 6.95613e-07ZM7.54913 2.51684C5.84652 2.72445 4.86557 3.1138 4.14937 3.76338C3.43317 4.41296 3.00388 5.30266 2.77498 6.84689C2.54115 8.42422 2.53846 10.5035 2.53846 13.4302V19.5698C2.53846 22.4965 2.54115 24.5758 2.77498 26.1532C3.00388 27.6973 3.43317 28.5871 4.14937 29.2366C4.86557 29.8862 5.84652 30.2756 7.54913 30.4831C9.28825 30.6952 11.5808 30.6977 14.8077 30.6977H18.1923C21.4192 30.6977 23.7118 30.6952 25.451 30.4831C27.1534 30.2756 28.1344 29.8862 28.8506 29.2366C29.5668 28.5871 29.9962 27.6973 30.225 26.1532C30.4588 24.5758 30.4615 22.4965 30.4615 19.5698V13.4302C30.4615 10.5035 30.4588 8.42422 30.225 6.84689C29.9962 5.30266 29.5668 4.41296 28.8506 3.76338C28.1344 3.1138 27.1534 2.72445 25.451 2.51684C23.7118 2.30477 21.4192 2.30233 18.1923 2.30233H14.8077C11.5808 2.30233 9.28825 2.30477 7.54913 2.51684ZM8.46154 10.3605C8.46154 9.7247 9.0298 9.2093 9.73077 9.2093H23.2692C23.9702 9.2093 24.5385 9.7247 24.5385 10.3605C24.5385 10.9962 23.9702 11.5116 23.2692 11.5116H9.73077C9.0298 11.5116 8.46154 10.9962 8.46154 10.3605ZM8.46154 16.5C8.46154 15.8643 9.0298 15.3488 9.73077 15.3488H23.2692C23.9702 15.3488 24.5385 15.8643 24.5385 16.5C24.5385 17.1357 23.9702 17.6512 23.2692 17.6512H9.73077C9.0298 17.6512 8.46154 17.1357 8.46154 16.5ZM8.46154 22.6395C8.46154 22.0038 9.0298 21.4884 9.73077 21.4884H18.1923C18.8933 21.4884 19.4615 22.0038 19.4615 22.6395C19.4615 23.2753 18.8933 23.7907 18.1923 23.7907H9.73077C9.0298 23.7907 8.46154 23.2753 8.46154 22.6395Z" fill="#090909"/>
<path d="M14.7122 6.95613e-07L14.7119 33.3333H14.7122V6.95613e-07ZM18.2878 6.95613e-07V33.3333H18.2881L18.2878 6.95613e-07ZM25.7891 0.235053L21.7541 33.3233L21.7544 33.3233L25.7891 0.235053ZM30.6457 2.13539L53.0406 -22.5542L53.0388 -22.5558L30.6457 2.13539ZM32.7409 6.54011L65.7142 1.65428L65.7136 1.65013L32.7409 6.54011ZM32.7409 26.4599L65.7136 31.3499L65.7142 31.3457L32.7409 26.4599ZM30.6457 30.8647L53.0379 55.5568L53.0411 55.5538L30.6457 30.8647ZM25.7891 32.765L29.8223 65.8534L29.8257 65.853L25.7891 32.765ZM7.21089 32.765L3.17429 65.853L3.17775 65.8534L7.21089 32.765ZM2.35441 30.8647L-20.0401 55.5547L-20.0383 55.5563L2.35441 30.8647ZM0.259161 26.4599L33.2322 21.5722L33.2322 21.5718L0.259161 26.4599ZM7.6688e-07 19.6563L33.3333 19.6567V19.6563H7.6688e-07ZM7.6688e-07 13.3436H33.3333V13.3432L7.6688e-07 13.3436ZM0.259161 6.54011L33.2322 11.4281L33.2322 11.4277L0.259161 6.54011ZM2.35441 2.13539L-20.0393 -22.5554L-20.0396 -22.5551L2.35441 2.13539ZM7.21089 0.235053L11.2455 33.3233L11.2459 33.3233L7.21089 0.235053ZM7.54913 2.51684L11.5838 35.6051L11.584 35.6051L7.54913 2.51684ZM2.77498 6.84689L35.748 11.7348L35.748 11.7345L2.77498 6.84689ZM2.77498 26.1532L-30.1981 31.041L-30.198 31.0412L2.77498 26.1532ZM7.54913 30.4831L11.5849 -2.60502L11.582 -2.60537L7.54913 30.4831ZM25.451 30.4831L21.4177 -2.60533L21.4153 -2.60504L25.451 30.4831ZM30.225 26.1532L-2.74792 21.2644L-2.74835 21.2673L30.225 26.1532ZM30.225 6.84689L-2.74841 11.7324L-2.74789 11.7359L30.225 6.84689ZM25.451 2.51684L29.4859 -30.5714L29.4857 -30.5714L25.451 2.51684ZM14.7122 33.3333H18.2878V-33.3333H14.7122V33.3333ZM18.2881 33.3333C19.9519 33.3333 20.9222 33.3352 21.6957 33.3534C22.4822 33.372 22.3502 33.396 21.7541 33.3233L29.8241 -32.8532C25.4187 -33.3904 20.5915 -33.3334 18.2874 -33.3333L18.2881 33.3333ZM21.7544 33.3233C20.6072 33.1834 14.2944 32.3062 8.25249 26.8266L53.0388 -22.5558C44.4639 -30.3327 34.9391 -32.2295 29.8237 -32.8532L21.7544 33.3233ZM8.25068 26.825C5.32201 24.1685 3.14921 21.034 1.70901 17.8573C0.373588 14.9117 -0.073036 12.5006 -0.231793 11.4301L65.7136 1.65013C64.8068 -4.46438 62.0809 -14.3541 53.0406 -22.5542L8.25068 26.825ZM-0.232409 11.4259C-0.315424 10.8657 -0.345626 10.4882 -0.354284 10.3695C-0.363144 10.2481 -0.358525 10.2684 -0.352029 10.495C-0.345567 10.7204 -0.339892 11.05 -0.336699 11.5495C-0.333457 12.0569 -0.333332 12.615 -0.333332 13.3436H66.3333C66.3333 11.497 66.4168 6.39602 65.7142 1.65428L-0.232409 11.4259ZM-0.333332 13.3436V19.6563H66.3333V13.3436H-0.333332ZM-0.333332 19.6563C-0.333332 20.385 -0.333457 20.9432 -0.336699 21.4505C-0.339892 21.9501 -0.345567 22.2796 -0.352029 22.505C-0.358524 22.7316 -0.363143 22.7519 -0.354282 22.6305C-0.345622 22.5118 -0.315419 22.1342 -0.232403 21.574L65.7142 31.3457C66.4168 26.604 66.3333 21.503 66.3333 19.6563H-0.333332ZM-0.231781 21.5698C-0.0730264 20.4993 0.373572 18.0884 1.70886 15.143C3.1489 11.9666 5.32153 8.83211 8.25019 6.17553L53.0411 55.5538C62.0811 47.3537 64.8068 37.464 65.7136 31.3499L-0.231781 21.5698ZM8.25347 6.17255C14.2951 0.693638 20.6072 -0.183284 21.7524 -0.322998L29.8257 65.853C34.9391 65.2292 44.4631 63.3328 53.0379 55.5568L8.25347 6.17255ZM21.7559 -0.323423C22.3513 -0.395994 22.4827 -0.371993 21.6959 -0.35344C20.9221 -0.335191 19.9516 -0.333332 18.2878 -0.333332V66.3333C20.5921 66.3333 25.4182 66.3903 29.8223 65.8534L21.7559 -0.323423ZM18.2878 -0.333332H14.7122V66.3333H18.2878V-0.333332ZM14.7122 -0.333332C13.0484 -0.333332 12.0779 -0.335191 11.3041 -0.35344C10.5173 -0.371994 10.6487 -0.395996 11.244 -0.323427L3.17775 65.8534C7.5818 66.3903 12.4079 66.3333 14.7122 66.3333V-0.333332ZM11.2475 -0.323007C12.393 -0.183264 18.7053 0.693767 24.7471 6.173L-20.0383 55.5563C-11.4636 63.3327 -1.93936 65.2292 3.17429 65.853L11.2475 -0.323007ZM24.7489 6.17463C27.6776 8.83109 29.8507 11.9657 31.2911 15.1429C32.6267 18.089 33.0734 20.5008 33.2322 21.5722L-32.7139 31.3475C-31.8072 37.4641 -29.0808 47.3545 -20.0401 55.5547L24.7489 6.17463ZM33.2322 21.5718C33.3153 22.1325 33.3455 22.5105 33.3542 22.6295C33.3631 22.7513 33.3585 22.7312 33.352 22.5048C33.3455 22.2796 33.3399 21.9502 33.3367 21.4507C33.3334 20.9435 33.3333 20.3854 33.3333 19.6567L-33.3333 19.6559C-33.3334 21.5023 -33.417 26.6046 -32.7138 31.3479L33.2322 21.5718ZM33.3333 19.6563V13.3436H-33.3333V19.6563H33.3333ZM33.3333 13.3432C33.3333 12.6146 33.3334 12.0565 33.3367 11.5493C33.3399 11.0498 33.3455 10.7204 33.352 10.4952C33.3585 10.2688 33.3631 10.2487 33.3542 10.3705C33.3455 10.4895 33.3153 10.8674 33.2322 11.4281L-32.7138 1.6521C-33.417 6.39536 -33.3334 11.4977 -33.3333 13.344L33.3333 13.3432ZM33.2322 11.4277C33.0734 12.4991 32.6267 14.9111 31.2909 17.8574C29.8504 21.0349 27.6772 24.1695 24.7484 26.8259L-20.0396 -22.5551C-29.0806 -14.355 -31.8072 -4.46445 -32.7139 1.65256L33.2322 11.4277ZM24.7481 26.8262C18.706 32.3061 12.3929 33.1834 11.2455 33.3233L3.17631 -32.8532C-1.93935 -32.2294 -11.4643 -30.3326 -20.0393 -22.5554L24.7481 26.8262ZM11.2459 33.3233C10.6497 33.396 10.5177 33.372 11.3043 33.3534C12.0778 33.3352 13.0481 33.3333 14.7119 33.3333L14.7126 -33.3333C12.4085 -33.3334 7.58126 -33.3904 3.17593 -32.8532L11.2459 33.3233ZM3.51451 -30.5714C-1.3438 -29.979 -10.2311 -28.1952 -18.2445 -20.9273L26.5432 28.454C19.9622 34.4228 13.0368 35.4279 11.5838 35.6051L3.51451 -30.5714ZM-18.2445 -20.9273C-26.7214 -13.2389 -29.3252 -3.92939 -30.1981 1.95929L35.748 11.7345C35.5767 12.8906 35.0928 15.5297 33.6317 18.7484C32.0086 22.3238 29.6113 25.6713 26.5432 28.454L-18.2445 -20.9273ZM-30.198 1.95894C-30.8784 6.54872 -30.7949 11.5547 -30.7949 13.4302H35.8718C35.8718 12.6822 35.8721 12.1061 35.8752 11.595C35.8784 11.0883 35.8838 10.7647 35.8897 10.5526C35.8956 10.3386 35.8991 10.3499 35.8875 10.5115C35.876 10.6717 35.8409 11.1081 35.748 11.7348L-30.198 1.95894ZM-30.7949 13.4302V19.5698H35.8718V13.4302H-30.7949ZM-30.7949 19.5698C-30.7949 21.4454 -30.8784 26.4512 -30.1981 31.041L35.748 21.2654C35.8409 21.8921 35.876 22.3284 35.8875 22.4886C35.8991 22.6502 35.8956 22.6614 35.8897 22.4474C35.8838 22.2353 35.8784 21.9117 35.8752 21.405C35.8721 20.8939 35.8718 20.3178 35.8718 19.5698H-30.7949ZM-30.198 31.0412C-29.3252 36.9291 -26.7215 46.2389 -18.2442 53.9275L26.5429 4.54572C29.6116 7.32887 32.0087 10.6766 33.6317 14.2516C35.0927 17.47 35.5766 20.1089 35.748 21.2652L-30.198 31.0412ZM-18.2442 53.9275C-10.2311 61.195 -1.34424 62.9792 3.51628 63.5716L11.582 -2.60537C13.0373 -2.428 19.9623 -1.42263 26.5429 4.54572L-18.2442 53.9275ZM3.51336 63.5712C7.74498 64.0873 12.45 64.031 14.8077 64.031V-2.63566C13.0913 -2.63566 12.1176 -2.63799 11.3777 -2.6548C11.0501 -2.66224 10.9202 -2.66972 10.9248 -2.66945C10.9277 -2.66927 11.1718 -2.6554 11.5849 -2.60502L3.51336 63.5712ZM14.8077 64.031H18.1923V-2.63566H14.8077V64.031ZM18.1923 64.031C20.5501 64.031 25.255 64.0873 29.4866 63.5712L21.4153 -2.60504C21.8284 -2.65541 22.0724 -2.66928 22.0753 -2.66945C22.0799 -2.66972 21.9499 -2.66224 21.6223 -2.6548C20.8824 -2.63799 19.9086 -2.63566 18.1923 -2.63566V64.031ZM29.4842 63.5715C34.3439 62.9792 43.2312 61.1951 51.2445 53.9272L6.4568 4.54598C13.0377 -1.42273 19.9629 -2.428 21.4177 -2.60533L29.4842 63.5715ZM51.2445 53.9272C59.7212 46.2391 62.3254 36.9295 63.1983 31.0391L-2.74835 21.2673C-2.57688 20.1101 -2.09295 17.4706 -0.631697 14.2517C0.991369 10.6763 3.38859 7.32878 6.4568 4.54598L51.2445 53.9272ZM63.1978 31.042C63.8784 26.4517 63.7949 21.4454 63.7949 19.5698H-2.87179C-2.87179 20.3178 -2.87207 20.8939 -2.87523 21.4049C-2.87837 21.9116 -2.88381 22.235 -2.88967 22.4471C-2.89558 22.661 -2.89907 22.6497 -2.88748 22.488C-2.87599 22.3277 -2.84085 21.8912 -2.74792 21.2644L63.1978 31.042ZM63.7949 19.5698V13.4302H-2.87179V19.5698H63.7949ZM63.7949 13.4302C63.7949 11.5547 63.8784 6.54825 63.1978 1.9579L-2.74789 11.7359C-2.84084 11.109 -2.87598 10.6725 -2.88748 10.5121C-2.89906 10.3504 -2.89558 10.339 -2.88967 10.553C-2.88381 10.765 -2.87837 11.0884 -2.87523 11.5951C-2.87207 12.1061 -2.87179 12.6822 -2.87179 13.4302H63.7949ZM63.1983 1.96141C62.3255 -3.92985 59.721 -13.239 51.2448 -20.927L6.45651 28.4538C3.38886 25.6714 0.991555 22.3241 -0.631698 18.7483C-2.09307 15.5291 -2.57697 12.8895 -2.74841 11.7324L63.1983 1.96141ZM51.2448 -20.927C43.2311 -28.1953 34.3435 -29.979 29.4859 -30.5714L21.416 35.6051C19.9634 35.4279 13.0377 34.4229 6.45651 28.4538L51.2448 -20.927ZM29.4857 -30.5714C25.2546 -31.0873 20.55 -31.031 18.1923 -31.031V35.6357C19.9087 35.6357 20.8825 35.638 21.6225 35.6548C21.9502 35.6622 22.0803 35.6697 22.0758 35.6694C22.073 35.6693 21.8291 35.6554 21.4162 35.6051L29.4857 -30.5714ZM18.1923 -31.031H14.8077V35.6357H18.1923V-31.031ZM14.8077 -31.031C12.45 -31.031 7.74537 -31.0873 3.51422 -30.5714L11.584 35.6051C11.1711 35.6554 10.9271 35.6693 10.9243 35.6694C10.9198 35.6697 11.0498 35.6622 11.3775 35.6548C12.1175 35.638 13.0913 35.6357 14.8077 35.6357V-31.031ZM41.7949 10.3605C41.7949 31.1219 24.3022 42.5426 9.73077 42.5426V-24.124C-6.24264 -24.124 -24.8718 -11.6725 -24.8718 10.3605H41.7949ZM9.73077 42.5426H23.2692V-24.124H9.73077V42.5426ZM23.2692 42.5426C8.69805 42.5426 -8.79487 31.1222 -8.79487 10.3605H57.8718C57.8718 -11.6728 39.2423 -24.124 23.2692 -24.124V42.5426ZM-8.79487 10.3605C-8.79487 -10.4013 8.69805 -21.8217 23.2692 -21.8217V44.845C39.2423 44.845 57.8718 32.3937 57.8718 10.3605H-8.79487ZM23.2692 -21.8217H9.73077V44.845H23.2692V-21.8217ZM9.73077 -21.8217C24.3022 -21.8217 41.7949 -10.401 41.7949 10.3605H-24.8718C-24.8718 32.3935 -6.24264 44.845 9.73077 44.845V-21.8217ZM41.7949 16.5C41.7949 37.2612 24.3025 48.6822 9.73077 48.6822V-17.9845C-6.24294 -17.9845 -24.8718 -5.53272 -24.8718 16.5H41.7949ZM9.73077 48.6822H23.2692V-17.9845H9.73077V48.6822ZM23.2692 48.6822C8.69775 48.6822 -8.79487 37.2615 -8.79487 16.5H57.8718C57.8718 -5.533 39.2426 -17.9845 23.2692 -17.9845V48.6822ZM-8.79487 16.5C-8.79487 -4.2615 8.69775 -15.6822 23.2692 -15.6822V50.9845C39.2426 50.9845 57.8718 38.533 57.8718 16.5H-8.79487ZM23.2692 -15.6822H9.73077V50.9845H23.2692V-15.6822ZM9.73077 -15.6822C24.3025 -15.6822 41.7949 -4.26122 41.7949 16.5H-24.8718C-24.8718 38.5327 -6.24294 50.9845 9.73077 50.9845V-15.6822ZM41.7949 22.6395C41.7949 43.4008 24.3025 54.8217 9.73077 54.8217V-11.845C-6.24294 -11.845 -24.8718 0.606813 -24.8718 22.6395H41.7949ZM9.73077 54.8217H18.1923V-11.845H9.73077V54.8217ZM18.1923 54.8217C3.62082 54.8217 -13.8718 43.401 -13.8718 22.6395H52.7949C52.7949 0.60654 34.1657 -11.845 18.1923 -11.845V54.8217ZM-13.8718 22.6395C-13.8718 1.87804 3.62082 -9.54263 18.1923 -9.54263V57.124C34.1657 57.124 52.7949 44.6725 52.7949 22.6395H-13.8718ZM18.1923 -9.54263H9.73077V57.124H18.1923V-9.54263ZM9.73077 -9.54263C24.3025 -9.54263 41.7949 1.87831 41.7949 22.6395H-24.8718C-24.8718 44.6723 -6.24294 57.124 9.73077 57.124V-9.54263Z" fill="#090909" mask="url(#path-1-inside-1_6686_369)"/>
</svg>
