<svg width="30" height="30" viewBox="0 0 30 30" fill="none" xmlns="http://www.w3.org/2000/svg">
<rect width="30" height="30" rx="15" fill="#0A71BB"/>
<path d="M20.9997 15.0001C20.8229 15.0001 20.6533 15.0704 20.5283 15.1954C20.4032 15.3204 20.333 15.49 20.333 15.6668V19.6668C20.333 19.8436 20.2628 20.0132 20.1377 20.1382C20.0127 20.2632 19.8432 20.3335 19.6663 20.3335H10.333C10.1562 20.3335 9.98663 20.2632 9.8616 20.1382C9.73658 20.0132 9.66634 19.8436 9.66634 19.6668V10.3335C9.66634 10.1566 9.73658 9.98708 9.8616 9.86205C9.98663 9.73703 10.1562 9.66679 10.333 9.66679H14.333C14.5098 9.66679 14.6794 9.59655 14.8044 9.47153C14.9294 9.3465 14.9997 9.17693 14.9997 9.00012C14.9997 8.82331 14.9294 8.65374 14.8044 8.52872C14.6794 8.40369 14.5098 8.33346 14.333 8.33346H10.333C9.80257 8.33346 9.29387 8.54417 8.91879 8.91924C8.54372 9.29431 8.33301 9.80302 8.33301 10.3335V19.6668C8.33301 20.1972 8.54372 20.7059 8.91879 21.081C9.29387 21.4561 9.80257 21.6668 10.333 21.6668H19.6663C20.1968 21.6668 20.7055 21.4561 21.0806 21.081C21.4556 20.7059 21.6663 20.1972 21.6663 19.6668V15.6668C21.6663 15.49 21.5961 15.3204 21.4711 15.1954C21.3461 15.0704 21.1765 15.0001 20.9997 15.0001ZM10.9997 15.5068V18.3335C10.9997 18.5103 11.0699 18.6798 11.1949 18.8049C11.32 18.9299 11.4895 19.0001 11.6663 19.0001H14.493C14.5807 19.0006 14.6677 18.9838 14.7489 18.9506C14.8302 18.9175 14.904 18.8686 14.9663 18.8068L19.5797 14.1868L21.473 12.3335C21.5355 12.2715 21.5851 12.1977 21.6189 12.1165C21.6528 12.0353 21.6702 11.9481 21.6702 11.8601C21.6702 11.7721 21.6528 11.685 21.6189 11.6037C21.5851 11.5225 21.5355 11.4488 21.473 11.3868L18.6463 8.52679C18.5844 8.4643 18.5106 8.41471 18.4294 8.38086C18.3482 8.34702 18.261 8.32959 18.173 8.32959C18.085 8.32959 17.9979 8.34702 17.9166 8.38086C17.8354 8.41471 17.7616 8.4643 17.6997 8.52679L15.8197 10.4135L11.193 15.0335C11.1312 15.0957 11.0823 15.1696 11.0492 15.2509C11.016 15.3321 10.9992 15.4191 10.9997 15.5068ZM18.173 9.94012L20.0597 11.8268L19.113 12.7735L17.2263 10.8868L18.173 9.94012ZM12.333 15.7801L16.2863 11.8268L18.173 13.7135L14.2197 17.6668H12.333V15.7801Z" fill="white"/>
</svg>
