<svg width="116" height="13" viewBox="0 0 116 13" fill="none" xmlns="http://www.w3.org/2000/svg">
<path d="M2.124 4.324L1.5 10H0.48L1.5 1.18L4.86 7.264L8.22 1.18L9.24 10H8.22L7.596 4.324L4.86 9.22L2.124 4.324ZM11.0468 8.296C11.0468 8.504 11.0948 8.684 11.1908 8.836C11.2948 8.988 11.4348 9.104 11.6108 9.184C11.7948 9.256 12.0028 9.292 12.2348 9.292C12.5308 9.292 12.7948 9.232 13.0268 9.112C13.2668 8.992 13.4548 8.824 13.5908 8.608C13.7348 8.384 13.8068 8.128 13.8068 7.84L13.9988 8.56C13.9988 8.912 13.8908 9.204 13.6748 9.436C13.4668 9.668 13.2068 9.84 12.8948 9.952C12.5908 10.064 12.2868 10.12 11.9828 10.12C11.6468 10.12 11.3308 10.052 11.0348 9.916C10.7468 9.772 10.5148 9.568 10.3388 9.304C10.1628 9.04 10.0748 8.72 10.0748 8.344C10.0748 7.808 10.2628 7.38 10.6388 7.06C11.0228 6.732 11.5548 6.568 12.2348 6.568C12.6348 6.568 12.9668 6.616 13.2308 6.712C13.5028 6.8 13.7188 6.904 13.8788 7.024C14.0388 7.136 14.1468 7.228 14.2028 7.3V7.864C13.9228 7.672 13.6348 7.536 13.3388 7.456C13.0428 7.368 12.7268 7.324 12.3908 7.324C12.0788 7.324 11.8228 7.364 11.6228 7.444C11.4308 7.524 11.2868 7.636 11.1908 7.78C11.0948 7.924 11.0468 8.096 11.0468 8.296ZM10.9028 5.752L10.4348 5.044C10.6428 4.892 10.9268 4.74 11.2868 4.588C11.6548 4.436 12.0948 4.36 12.6068 4.36C13.0388 4.36 13.4148 4.428 13.7348 4.564C14.0628 4.692 14.3148 4.88 14.4908 5.128C14.6748 5.376 14.7668 5.68 14.7668 6.04V10H13.8068V6.172C13.8068 5.98 13.7748 5.824 13.7108 5.704C13.6468 5.576 13.5548 5.476 13.4348 5.404C13.3228 5.332 13.1908 5.28 13.0388 5.248C12.8868 5.216 12.7268 5.2 12.5588 5.2C12.2868 5.2 12.0388 5.232 11.8148 5.296C11.5988 5.36 11.4148 5.436 11.2628 5.524C11.1108 5.612 10.9908 5.688 10.9028 5.752ZM17.3522 4.48V10H16.3922V4.48H17.3522ZM19.0202 5.536C18.8922 5.44 18.7762 5.372 18.6722 5.332C18.5682 5.284 18.4362 5.26 18.2762 5.26C18.0362 5.26 17.8482 5.32 17.7122 5.44C17.5762 5.56 17.4802 5.724 17.4242 5.932C17.3762 6.14 17.3522 6.376 17.3522 6.64H16.9202C16.9202 6.2 16.9962 5.812 17.1482 5.476C17.3082 5.132 17.5122 4.86 17.7602 4.66C18.0082 4.46 18.2602 4.36 18.5162 4.36C18.7162 4.36 18.9002 4.388 19.0682 4.444C19.2442 4.492 19.4042 4.592 19.5482 4.744L19.0202 5.536ZM21.4655 7.84C21.4655 8.28 21.5655 8.62 21.7655 8.86C21.9655 9.1 22.2575 9.22 22.6415 9.22C22.9215 9.22 23.1655 9.164 23.3735 9.052C23.5895 8.932 23.7535 8.768 23.8655 8.56C23.9855 8.352 24.0455 8.112 24.0455 7.84V4.48H25.0055V10H24.0455V9.136C23.8615 9.464 23.6335 9.712 23.3615 9.88C23.0895 10.04 22.7695 10.12 22.4015 10.12C21.8255 10.12 21.3655 9.924 21.0215 9.532C20.6775 9.14 20.5055 8.616 20.5055 7.96V4.48H21.4655V7.84ZM29.5102 5.38H26.4502V4.48H31.2502L27.8302 9.1H31.0102V10H26.0902L29.5102 5.38ZM32.7617 8.296C32.7617 8.504 32.8097 8.684 32.9057 8.836C33.0097 8.988 33.1497 9.104 33.3257 9.184C33.5097 9.256 33.7177 9.292 33.9497 9.292C34.2457 9.292 34.5097 9.232 34.7417 9.112C34.9817 8.992 35.1697 8.824 35.3057 8.608C35.4497 8.384 35.5217 8.128 35.5217 7.84L35.7137 8.56C35.7137 8.912 35.6057 9.204 35.3897 9.436C35.1817 9.668 34.9217 9.84 34.6097 9.952C34.3057 10.064 34.0017 10.12 33.6977 10.12C33.3617 10.12 33.0457 10.052 32.7497 9.916C32.4617 9.772 32.2297 9.568 32.0537 9.304C31.8777 9.04 31.7897 8.72 31.7897 8.344C31.7897 7.808 31.9777 7.38 32.3537 7.06C32.7377 6.732 33.2697 6.568 33.9497 6.568C34.3497 6.568 34.6817 6.616 34.9457 6.712C35.2177 6.8 35.4337 6.904 35.5937 7.024C35.7537 7.136 35.8617 7.228 35.9177 7.3V7.864C35.6377 7.672 35.3497 7.536 35.0537 7.456C34.7577 7.368 34.4417 7.324 34.1057 7.324C33.7937 7.324 33.5377 7.364 33.3377 7.444C33.1457 7.524 33.0017 7.636 32.9057 7.78C32.8097 7.924 32.7617 8.096 32.7617 8.296ZM32.6177 5.752L32.1497 5.044C32.3577 4.892 32.6417 4.74 33.0017 4.588C33.3697 4.436 33.8097 4.36 34.3217 4.36C34.7537 4.36 35.1297 4.428 35.4497 4.564C35.7777 4.692 36.0297 4.88 36.2057 5.128C36.3897 5.376 36.4817 5.68 36.4817 6.04V10H35.5217V6.172C35.5217 5.98 35.4897 5.824 35.4257 5.704C35.3617 5.576 35.2697 5.476 35.1497 5.404C35.0377 5.332 34.9057 5.28 34.7537 5.248C34.6017 5.216 34.4417 5.2 34.2737 5.2C34.0017 5.2 33.7537 5.232 33.5297 5.296C33.3137 5.36 33.1297 5.436 32.9777 5.524C32.8257 5.612 32.7057 5.688 32.6177 5.752ZM49.2647 6.52V10H48.3047V6.64C48.3047 6.168 48.2167 5.82 48.0407 5.596C47.8727 5.372 47.6087 5.26 47.2487 5.26C46.9847 5.26 46.7567 5.316 46.5647 5.428C46.3727 5.532 46.2247 5.688 46.1207 5.896C46.0167 6.104 45.9647 6.352 45.9647 6.64V10H45.0047V6.64C45.0047 6.168 44.9167 5.82 44.7407 5.596C44.5727 5.372 44.3087 5.26 43.9487 5.26C43.6847 5.26 43.4567 5.316 43.2647 5.428C43.0727 5.532 42.9247 5.688 42.8207 5.896C42.7167 6.104 42.6647 6.352 42.6647 6.64V10H41.7047V4.48H42.6647V5.284C42.8327 4.972 43.0407 4.74 43.2887 4.588C43.5447 4.436 43.8447 4.36 44.1887 4.36C44.5727 4.36 44.9007 4.452 45.1727 4.636C45.4527 4.812 45.6567 5.064 45.7847 5.392C45.9767 5.048 46.2167 4.792 46.5047 4.624C46.7927 4.448 47.1207 4.36 47.4887 4.36C47.8647 4.36 48.1847 4.444 48.4487 4.612C48.7127 4.78 48.9127 5.028 49.0487 5.356C49.1927 5.676 49.2647 6.064 49.2647 6.52ZM51.5 8.296C51.5 8.504 51.548 8.684 51.644 8.836C51.748 8.988 51.888 9.104 52.064 9.184C52.248 9.256 52.456 9.292 52.688 9.292C52.984 9.292 53.248 9.232 53.48 9.112C53.72 8.992 53.908 8.824 54.044 8.608C54.188 8.384 54.26 8.128 54.26 7.84L54.452 8.56C54.452 8.912 54.344 9.204 54.128 9.436C53.92 9.668 53.66 9.84 53.348 9.952C53.044 10.064 52.74 10.12 52.436 10.12C52.1 10.12 51.784 10.052 51.488 9.916C51.2 9.772 50.968 9.568 50.792 9.304C50.616 9.04 50.528 8.72 50.528 8.344C50.528 7.808 50.716 7.38 51.092 7.06C51.476 6.732 52.008 6.568 52.688 6.568C53.088 6.568 53.42 6.616 53.684 6.712C53.956 6.8 54.172 6.904 54.332 7.024C54.492 7.136 54.6 7.228 54.656 7.3V7.864C54.376 7.672 54.088 7.536 53.792 7.456C53.496 7.368 53.18 7.324 52.844 7.324C52.532 7.324 52.276 7.364 52.076 7.444C51.884 7.524 51.74 7.636 51.644 7.78C51.548 7.924 51.5 8.096 51.5 8.296ZM51.356 5.752L50.888 5.044C51.096 4.892 51.38 4.74 51.74 4.588C52.108 4.436 52.548 4.36 53.06 4.36C53.492 4.36 53.868 4.428 54.188 4.564C54.516 4.692 54.768 4.88 54.944 5.128C55.128 5.376 55.22 5.68 55.22 6.04V10H54.26V6.172C54.26 5.98 54.228 5.824 54.164 5.704C54.1 5.576 54.008 5.476 53.888 5.404C53.776 5.332 53.644 5.28 53.492 5.248C53.34 5.216 53.18 5.2 53.012 5.2C52.74 5.2 52.492 5.232 52.268 5.296C52.052 5.36 51.868 5.436 51.716 5.524C51.564 5.612 51.444 5.688 51.356 5.752ZM56.0053 4.48H58.7653V5.38H56.0053V4.48ZM56.9053 2.56H57.8653V10H56.9053V2.56ZM63.2681 6.64C63.2681 6.184 63.1681 5.84 62.9681 5.608C62.7681 5.376 62.4761 5.26 62.0921 5.26C61.8121 5.26 61.5641 5.32 61.3481 5.44C61.1401 5.552 60.9761 5.712 60.8561 5.92C60.7441 6.128 60.6881 6.368 60.6881 6.64V10H59.7281V4.48H60.6881V5.344C60.8721 5.008 61.1001 4.76 61.3721 4.6C61.6521 4.44 61.9721 4.36 62.3321 4.36C62.9161 4.36 63.3761 4.556 63.7121 4.948C64.0561 5.332 64.2281 5.856 64.2281 6.52V10H63.2681V6.64ZM66.0328 2.2C66.0328 2.016 66.0968 1.86 66.2248 1.732C66.3608 1.604 66.5168 1.54 66.6928 1.54C66.8768 1.54 67.0328 1.604 67.1608 1.732C67.2888 1.86 67.3528 2.016 67.3528 2.2C67.3528 2.376 67.2888 2.532 67.1608 2.668C67.0328 2.796 66.8768 2.86 66.6928 2.86C66.5168 2.86 66.3608 2.796 66.2248 2.668C66.0968 2.532 66.0328 2.376 66.0328 2.2ZM66.2128 4.48H67.1728V10H66.2128V4.48ZM72.69 6.64C72.69 6.184 72.59 5.84 72.39 5.608C72.19 5.376 71.898 5.26 71.514 5.26C71.234 5.26 70.986 5.32 70.77 5.44C70.562 5.552 70.398 5.712 70.278 5.92C70.166 6.128 70.11 6.368 70.11 6.64V10H69.15V4.48H70.11V5.344C70.294 5.008 70.522 4.76 70.794 4.6C71.074 4.44 71.394 4.36 71.754 4.36C72.338 4.36 72.798 4.556 73.134 4.948C73.478 5.332 73.65 5.856 73.65 6.52V10H72.69V6.64ZM75.4547 2.2C75.4547 2.016 75.5187 1.86 75.6467 1.732C75.7827 1.604 75.9387 1.54 76.1147 1.54C76.2987 1.54 76.4547 1.604 76.5827 1.732C76.7107 1.86 76.7747 2.016 76.7747 2.2C76.7747 2.376 76.7107 2.532 76.5827 2.668C76.4547 2.796 76.2987 2.86 76.1147 2.86C75.9387 2.86 75.7827 2.796 75.6467 2.668C75.5187 2.532 75.4547 2.376 75.4547 2.2ZM75.6347 4.48H76.5947V10H75.6347V4.48ZM82.1095 0.64H83.0695V10H82.1095V0.64ZM85.1095 4.48H86.3095L83.9095 6.76L86.5495 10H85.3495L82.7095 6.76L85.1095 4.48ZM87.4547 2.2C87.4547 2.016 87.5187 1.86 87.6467 1.732C87.7827 1.604 87.9387 1.54 88.1147 1.54C88.2987 1.54 88.4547 1.604 88.5827 1.732C88.7107 1.86 88.7747 2.016 88.7747 2.2C88.7747 2.376 88.7107 2.532 88.5827 2.668C88.4547 2.796 88.2987 2.86 88.1147 2.86C87.9387 2.86 87.7827 2.796 87.6467 2.668C87.5187 2.532 87.4547 2.376 87.4547 2.2ZM87.6347 4.48H88.5947V10H87.6347V4.48ZM91.5319 4.48V10H90.5719V4.48H91.5319ZM93.1999 5.536C93.0719 5.44 92.9559 5.372 92.8519 5.332C92.7479 5.284 92.6159 5.26 92.4559 5.26C92.2159 5.26 92.0279 5.32 91.8919 5.44C91.7559 5.56 91.6599 5.724 91.6039 5.932C91.5559 6.14 91.5319 6.376 91.5319 6.64H91.0999C91.0999 6.2 91.1759 5.812 91.3279 5.476C91.4879 5.132 91.6919 4.86 91.9399 4.66C92.1879 4.46 92.4399 4.36 92.6959 4.36C92.8959 4.36 93.0799 4.388 93.2479 4.444C93.4239 4.492 93.5839 4.592 93.7279 4.744L93.1999 5.536ZM94.6852 2.2C94.6852 2.016 94.7492 1.86 94.8772 1.732C95.0132 1.604 95.1692 1.54 95.3452 1.54C95.5292 1.54 95.6852 1.604 95.8132 1.732C95.9412 1.86 96.0052 2.016 96.0052 2.2C96.0052 2.376 95.9412 2.532 95.8132 2.668C95.6852 2.796 95.5292 2.86 95.3452 2.86C95.1692 2.86 95.0132 2.796 94.8772 2.668C94.7492 2.532 94.6852 2.376 94.6852 2.2ZM94.8652 4.48H95.8252V10H94.8652V4.48ZM96.9623 4.48H99.7223V5.38H96.9623V4.48ZM97.8623 2.56H98.8223V10H97.8623V2.56ZM100.685 2.2C100.685 2.016 100.749 1.86 100.877 1.732C101.013 1.604 101.169 1.54 101.345 1.54C101.529 1.54 101.685 1.604 101.813 1.732C101.941 1.86 102.005 2.016 102.005 2.2C102.005 2.376 101.941 2.532 101.813 2.668C101.685 2.796 101.529 2.86 101.345 2.86C101.169 2.86 101.013 2.796 100.877 2.668C100.749 2.532 100.685 2.376 100.685 2.2ZM100.865 4.48H101.825V10H100.865V4.48ZM107.342 6.64C107.342 6.184 107.242 5.84 107.042 5.608C106.842 5.376 106.55 5.26 106.166 5.26C105.886 5.26 105.638 5.32 105.422 5.44C105.214 5.552 105.05 5.712 104.93 5.92C104.818 6.128 104.762 6.368 104.762 6.64V10H103.802V4.48H104.762V5.344C104.946 5.008 105.174 4.76 105.446 4.6C105.726 4.44 106.046 4.36 106.406 4.36C106.99 4.36 107.45 4.556 107.786 4.948C108.13 5.332 108.302 5.856 108.302 6.52V10H107.342V6.64ZM109.735 10.36H110.707C110.707 10.624 110.779 10.868 110.923 11.092C111.067 11.324 111.271 11.508 111.535 11.644C111.799 11.788 112.111 11.86 112.471 11.86C112.751 11.86 113.027 11.792 113.299 11.656C113.571 11.52 113.795 11.304 113.971 11.008C114.155 10.72 114.247 10.344 114.247 9.88V4.48H115.207V9.88C115.207 10.512 115.075 11.04 114.811 11.464C114.547 11.896 114.207 12.22 113.791 12.436C113.375 12.652 112.935 12.76 112.471 12.76C111.935 12.76 111.459 12.66 111.043 12.46C110.635 12.26 110.315 11.976 110.083 11.608C109.851 11.248 109.735 10.832 109.735 10.36ZM109.627 7.24C109.627 6.64 109.751 6.128 109.999 5.704C110.247 5.272 110.579 4.94 110.995 4.708C111.411 4.476 111.867 4.36 112.363 4.36C112.827 4.36 113.231 4.476 113.575 4.708C113.919 4.94 114.187 5.272 114.379 5.704C114.579 6.128 114.679 6.64 114.679 7.24C114.679 7.832 114.579 8.344 114.379 8.776C114.187 9.208 113.919 9.54 113.575 9.772C113.231 10.004 112.827 10.12 112.363 10.12C111.867 10.12 111.411 10.004 110.995 9.772C110.579 9.54 110.247 9.208 109.999 8.776C109.751 8.344 109.627 7.832 109.627 7.24ZM110.599 7.24C110.599 7.664 110.683 8.024 110.851 8.32C111.027 8.616 111.259 8.84 111.547 8.992C111.835 9.144 112.147 9.22 112.483 9.22C112.763 9.22 113.039 9.144 113.311 8.992C113.583 8.84 113.807 8.616 113.983 8.32C114.159 8.024 114.247 7.664 114.247 7.24C114.247 6.92 114.195 6.64 114.091 6.4C113.987 6.152 113.847 5.944 113.671 5.776C113.503 5.608 113.315 5.48 113.107 5.392C112.899 5.304 112.691 5.26 112.483 5.26C112.147 5.26 111.835 5.336 111.547 5.488C111.259 5.64 111.027 5.864 110.851 6.16C110.683 6.456 110.599 6.816 110.599 7.24Z" fill="#BABABA"/>
</svg>
